<?xml version="1.0" encoding="UTF-8"?>
<svg xmlns="http://www.w3.org/2000/svg" xmlns:xlink="http://www.w3.org/1999/xlink" width="183px" height="150px" viewBox="0 0 13 11" version="1.1">
<g id="surface1">
<path style=" stroke:none;fill-rule:nonzero;fill:rgb(100%,100%,100%);fill-opacity:1;" d="M 0 9.761719 C 1.410156 9.902344 2.816406 9.484375 3.933594 8.59375 C 2.789062 8.558594 1.785156 7.800781 1.40625 6.6875 C 1.820312 6.75 2.246094 6.726562 2.652344 6.617188 C 2.042969 6.484375 1.5 6.144531 1.105469 5.65625 C 0.707031 5.15625 0.492188 4.535156 0.496094 3.890625 C 0.863281 4.09375 1.273438 4.210938 1.691406 4.226562 C 0.535156 3.398438 0.171875 1.804688 0.851562 0.53125 C 2.226562 2.257812 4.246094 3.3125 6.414062 3.429688 C 6.414062 3.257812 6.414062 3.113281 6.375 2.972656 C 6.308594 2.214844 6.5625 1.46875 7.070312 0.921875 C 7.675781 0.222656 8.589844 -0.0976562 9.484375 0.0703125 C 10.035156 0.167969 10.546875 0.445312 10.929688 0.867188 C 10.976562 0.921875 11.050781 0.945312 11.121094 0.921875 C 11.632812 0.804688 12.128906 0.609375 12.582031 0.34375 L 12.683594 0.292969 C 12.597656 0.609375 12.445312 0.898438 12.234375 1.144531 C 12.027344 1.375 11.792969 1.582031 11.578125 1.789062 C 12.070312 1.726562 12.558594 1.601562 13.023438 1.421875 C 12.945312 1.539062 12.859375 1.65625 12.769531 1.761719 C 12.472656 2.074219 12.171875 2.375 11.863281 2.660156 C 11.769531 2.734375 11.714844 2.847656 11.71875 2.972656 C 11.761719 4.675781 11.257812 6.351562 10.289062 7.734375 C 9.269531 9.273438 7.722656 10.359375 5.957031 10.769531 C 5.148438 10.964844 4.316406 11.03125 3.484375 10.96875 C 2.273438 10.875 1.101562 10.480469 0.0703125 9.816406 Z M 0 9.761719 "/>
</g>
</svg>
